<svg xmlns="http://www.w3.org/2000/svg" viewBox="0 0 200 200" width="200" height="200">
  <rect width="200" height="200" fill="#0A0A0B"/>
  <defs>
    <clipPath id="topLeft">
      <polygon points="0,0 200,200 0,200"/>
    </clipPath>
    <clipPath id="bottomRight">
      <polygon points="0,0 200,0 200,200"/>
    </clipPath>
  </defs>
  <g clip-path="url(#topLeft)">
    <path d="M 30 30 L 60 30 L 100 90 L 140 30 L 170 30 L 120 100 L 170 170 L 140 170 L 100 110 L 60 170 L 30 170 L 80 100 Z" fill="#FF4500"/>
  </g>
  <g clip-path="url(#bottomRight)">
    <path d="M 30 30 L 60 30 L 100 90 L 140 30 L 170 30 L 120 100 L 170 170 L 140 170 L 100 110 L 60 170 L 30 170 L 80 100 Z" fill="#1A6FD4"/>
  </g>
</svg>
