<svg xmlns="http://www.w3.org/2000/svg" viewBox="0 0 24 24" fill="currentColor" fill-rule="nonzero"><path d="M3.44 3.91H20.56C21.35 3.91 21.99 4.55 21.99 5.34C21.99 6.13 21.35 6.77 20.56 6.77H3.44C2.65 6.77 2.01 6.13 2.01 5.34C2.01 4.55 2.65 3.91 3.44 3.91ZM3.44 10.57H20.56C21.35 10.57 21.99 11.21 21.99 12C21.99 12.79 21.35 13.43 20.56 13.43H3.44C2.65 13.43 2.01 12.79 2.01 12C2.01 11.21 2.65 10.57 3.44 10.57ZM3.44 17.23H20.56C21.35 17.23 21.99 17.87 21.99 18.66C21.99 19.45 21.35 20.09 20.56 20.09H3.44C2.65 20.09 2.01 19.45 2.01 18.66C2.01 17.87 2.65 17.23 3.44 17.23Z"/></svg>
