<svg xmlns="http://www.w3.org/2000/svg" viewBox="0 0 24 24" fill="none" stroke="currentColor" stroke-width="1.7" stroke-linecap="round" stroke-linejoin="round"><path d="M3.45 14.6H6.05Q6.6 14.6 6.6 15.15V20.55Q6.6 21.1 6.05 21.1H3.45Q2.9 21.1 2.9 20.55V15.15Q2.9 14.6 3.45 14.6ZM10.75 9.6H13.35Q13.9 9.6 13.9 10.15V20.55Q13.9 21.1 13.35 21.1H10.75Q10.2 21.1 10.2 20.55V10.15Q10.2 9.6 10.75 9.6ZM18.05 16H20.55Q21.1 16 21.1 16.55V20.55Q21.1 21.1 20.55 21.1H18.05Q17.5 21.1 17.5 20.55V16.55Q17.5 16 18.05 16ZM18.45 3.7V8.9M15.85 6.3H21.05"/></svg>
