<svg xmlns="http://www.w3.org/2000/svg" viewBox="0 0 24 24" fill="currentColor" fill-rule="nonzero"><path d="M3.76 4.78H15.5Q16.4 4.78 16.4 5.68V8.39Q16.4 9.29 15.5 9.29H3.76Q2.86 9.29 2.86 8.39V5.68Q2.86 4.78 3.76 4.78ZM3.76 14.71H15.5Q16.4 14.71 16.4 15.61V18.32Q16.4 19.22 15.5 19.22H3.76Q2.86 19.22 2.86 18.32V15.61Q2.86 14.71 3.76 14.71ZM17.3 5.82H20.91C21.34 5.82 21.68 6.16 21.68 6.58V17.42C21.68 17.84 21.34 18.18 20.91 18.18H17.3C16.88 18.18 16.54 17.84 16.54 17.42C16.54 16.99 16.88 16.65 17.3 16.65H20.15V7.35H17.3C16.88 7.35 16.54 7.01 16.54 6.58C16.54 6.16 16.88 5.82 17.3 5.82Z"/></svg>
